<svg width="318" height="228" xmlns="http://www.w3.org/2000/svg" xmlns:xlink="http://www.w3.org/1999/xlink" xml:space="preserve" overflow="hidden"><g><g><path d="M0 0 318 0 318 159 0 159Z" fill="#FFFFFF" fill-rule="nonzero" fill-opacity="1" transform="scale(1 1.43396)"/><path d="M0 0 318 0 318 159 0 159Z" fill="#FFFFFF" fill-rule="nonzero" fill-opacity="1" transform="scale(1 1.43396)"/><path d="M34.98 141.404 243.8 141.404 243.8 11.872 34.98 11.872Z" fill="#FFFFFF" fill-rule="nonzero" fill-opacity="1" transform="scale(1 1.43396)"/><path d="M34.98 141.404 243.8 141.404" stroke="#262626" stroke-width="0.17666" stroke-linecap="square" stroke-linejoin="round" stroke-miterlimit="10" stroke-opacity="1" fill="none" fill-rule="nonzero" transform="scale(1 1.43396)"/><path d="M34.98 141.404 34.98 139.316" stroke="#262626" stroke-width="0.17666" stroke-linecap="square" stroke-linejoin="round" stroke-miterlimit="10" stroke-opacity="1" fill="none" fill-rule="nonzero" transform="scale(1 1.43396)"/><path d="M58.1823 141.404 58.1823 139.316" stroke="#262626" stroke-width="0.17666" stroke-linecap="square" stroke-linejoin="round" stroke-miterlimit="10" stroke-opacity="1" fill="none" fill-rule="nonzero" transform="scale(1 1.43396)"/><path d="M81.3845 141.404 81.3845 139.316" stroke="#262626" stroke-width="0.17666" stroke-linecap="square" stroke-linejoin="round" stroke-miterlimit="10" stroke-opacity="1" fill="none" fill-rule="nonzero" transform="scale(1 1.43396)"/><path d="M104.587 141.404 104.587 139.316" stroke="#262626" stroke-width="0.17666" stroke-linecap="square" stroke-linejoin="round" stroke-miterlimit="10" stroke-opacity="1" fill="none" fill-rule="nonzero" transform="scale(1 1.43396)"/><path d="M127.789 141.404 127.789 139.316" stroke="#262626" stroke-width="0.17666" stroke-linecap="square" stroke-linejoin="round" stroke-miterlimit="10" stroke-opacity="1" fill="none" fill-rule="nonzero" transform="scale(1 1.43396)"/><path d="M150.991 141.404 150.991 139.316" stroke="#262626" stroke-width="0.17666" stroke-linecap="square" stroke-linejoin="round" stroke-miterlimit="10" stroke-opacity="1" fill="none" fill-rule="nonzero" transform="scale(1 1.43396)"/><path d="M174.193 141.404 174.193 139.316" stroke="#262626" stroke-width="0.17666" stroke-linecap="square" stroke-linejoin="round" stroke-miterlimit="10" stroke-opacity="1" fill="none" fill-rule="nonzero" transform="scale(1 1.43396)"/><path d="M197.396 141.404 197.396 139.316" stroke="#262626" stroke-width="0.17666" stroke-linecap="square" stroke-linejoin="round" stroke-miterlimit="10" stroke-opacity="1" fill="none" fill-rule="nonzero" transform="scale(1 1.43396)"/><path d="M220.599 141.404 220.599 139.316" stroke="#262626" stroke-width="0.17666" stroke-linecap="square" stroke-linejoin="round" stroke-miterlimit="10" stroke-opacity="1" fill="none" fill-rule="nonzero" transform="scale(1 1.43396)"/><path d="M243.8 141.404 243.8 139.316" stroke="#262626" stroke-width="0.17666" stroke-linecap="square" stroke-linejoin="round" stroke-miterlimit="10" stroke-opacity="1" fill="none" fill-rule="nonzero" transform="scale(1 1.43396)"/><text fill="#262626" fill-opacity="1" font-family="Arial,Arial_MSFontService,sans-serif" font-style="normal" font-variant="normal" font-weight="400" font-stretch="normal" font-size="17" text-anchor="start" direction="ltr" writing-mode="lr-tb" unicode-bidi="normal" text-decoration="none" transform="matrix(0.212 0 0 0.304 31.376 210)">-100</text><text fill="#262626" fill-opacity="1" font-family="Arial,Arial_MSFontService,sans-serif" font-style="normal" font-variant="normal" font-weight="400" font-stretch="normal" font-size="17" text-anchor="start" direction="ltr" writing-mode="lr-tb" unicode-bidi="normal" text-decoration="none" transform="matrix(0.212 0 0 0.304 57.1223 210)">0</text><text fill="#262626" fill-opacity="1" font-family="Arial,Arial_MSFontService,sans-serif" font-style="normal" font-variant="normal" font-weight="400" font-stretch="normal" font-size="17" text-anchor="start" direction="ltr" writing-mode="lr-tb" unicode-bidi="normal" text-decoration="none" transform="matrix(0.212 0 0 0.304 78.4165 210)">100</text><text fill="#262626" fill-opacity="1" font-family="Arial,Arial_MSFontService,sans-serif" font-style="normal" font-variant="normal" font-weight="400" font-stretch="normal" font-size="17" text-anchor="start" direction="ltr" writing-mode="lr-tb" unicode-bidi="normal" text-decoration="none" transform="matrix(0.212 0 0 0.304 101.619 210)">200</text><text fill="#262626" fill-opacity="1" font-family="Arial,Arial_MSFontService,sans-serif" font-style="normal" font-variant="normal" font-weight="400" font-stretch="normal" font-size="17" text-anchor="start" direction="ltr" writing-mode="lr-tb" unicode-bidi="normal" text-decoration="none" transform="matrix(0.212 0 0 0.304 124.821 210)">300</text><text fill="#262626" fill-opacity="1" font-family="Arial,Arial_MSFontService,sans-serif" font-style="normal" font-variant="normal" font-weight="400" font-stretch="normal" font-size="17" text-anchor="start" direction="ltr" writing-mode="lr-tb" unicode-bidi="normal" text-decoration="none" transform="matrix(0.212 0 0 0.304 148.023 210)">400</text><text fill="#262626" fill-opacity="1" font-family="Arial,Arial_MSFontService,sans-serif" font-style="normal" font-variant="normal" font-weight="400" font-stretch="normal" font-size="17" text-anchor="start" direction="ltr" writing-mode="lr-tb" unicode-bidi="normal" text-decoration="none" transform="matrix(0.212 0 0 0.304 171.225 210)">500</text><text fill="#262626" fill-opacity="1" font-family="Arial,Arial_MSFontService,sans-serif" font-style="normal" font-variant="normal" font-weight="400" font-stretch="normal" font-size="17" text-anchor="start" direction="ltr" writing-mode="lr-tb" unicode-bidi="normal" text-decoration="none" transform="matrix(0.212 0 0 0.304 194.428 210)">600</text><text fill="#262626" fill-opacity="1" font-family="Arial,Arial_MSFontService,sans-serif" font-style="normal" font-variant="normal" font-weight="400" font-stretch="normal" font-size="17" text-anchor="start" direction="ltr" writing-mode="lr-tb" unicode-bidi="normal" text-decoration="none" transform="matrix(0.212 0 0 0.304 217.631 210)">700</text><text fill="#262626" fill-opacity="1" font-family="Arial,Arial_MSFontService,sans-serif" font-style="normal" font-variant="normal" font-weight="400" font-stretch="normal" font-size="17" text-anchor="start" direction="ltr" writing-mode="lr-tb" unicode-bidi="normal" text-decoration="none" transform="matrix(0.212 0 0 0.304 240.832 210)">800</text><path d="M34.98 141.404 34.98 11.872" stroke="#262626" stroke-width="0.17666" stroke-linecap="square" stroke-linejoin="round" stroke-miterlimit="10" stroke-opacity="1" fill="none" fill-rule="nonzero" transform="scale(1 1.43396)"/><path d="M34.98 141.404 37.0682 141.404" stroke="#262626" stroke-width="0.17666" stroke-linecap="square" stroke-linejoin="round" stroke-miterlimit="10" stroke-opacity="1" fill="none" fill-rule="nonzero" transform="scale(1 1.43396)"/><path d="M34.98 119.815 37.0682 119.815" stroke="#262626" stroke-width="0.17666" stroke-linecap="square" stroke-linejoin="round" stroke-miterlimit="10" stroke-opacity="1" fill="none" fill-rule="nonzero" transform="scale(1 1.43396)"/><path d="M34.98 98.2266 37.0682 98.2266" stroke="#262626" stroke-width="0.17666" stroke-linecap="square" stroke-linejoin="round" stroke-miterlimit="10" stroke-opacity="1" fill="none" fill-rule="nonzero" transform="scale(1 1.43396)"/><path d="M34.98 76.638 37.0682 76.638" stroke="#262626" stroke-width="0.17666" stroke-linecap="square" stroke-linejoin="round" stroke-miterlimit="10" stroke-opacity="1" fill="none" fill-rule="nonzero" transform="scale(1 1.43396)"/><path d="M34.98 55.0494 37.0682 55.0494" stroke="#262626" stroke-width="0.17666" stroke-linecap="square" stroke-linejoin="round" stroke-miterlimit="10" stroke-opacity="1" fill="none" fill-rule="nonzero" transform="scale(1 1.43396)"/><path d="M34.98 33.4606 37.0682 33.4606" stroke="#262626" stroke-width="0.17666" stroke-linecap="square" stroke-linejoin="round" stroke-miterlimit="10" stroke-opacity="1" fill="none" fill-rule="nonzero" transform="scale(1 1.43396)"/><path d="M34.98 11.872 37.0682 11.872" stroke="#262626" stroke-width="0.17666" stroke-linecap="square" stroke-linejoin="round" stroke-miterlimit="10" stroke-opacity="1" fill="none" fill-rule="nonzero" transform="scale(1 1.43396)"/><text fill="#262626" fill-opacity="1" font-family="Arial,Arial_MSFontService,sans-serif" font-style="normal" font-variant="normal" font-weight="400" font-stretch="normal" font-size="17" text-anchor="start" direction="ltr" writing-mode="lr-tb" unicode-bidi="normal" text-decoration="none" transform="matrix(0.212 0 0 0.304 26.3586 205)">-100</text><text fill="#262626" fill-opacity="1" font-family="Arial,Arial_MSFontService,sans-serif" font-style="normal" font-variant="normal" font-weight="400" font-stretch="normal" font-size="17" text-anchor="start" direction="ltr" writing-mode="lr-tb" unicode-bidi="normal" text-decoration="none" transform="matrix(0.212 0 0 0.304 31.4466 174)">0</text><text fill="#262626" fill-opacity="1" font-family="Arial,Arial_MSFontService,sans-serif" font-style="normal" font-variant="normal" font-weight="400" font-stretch="normal" font-size="17" text-anchor="start" direction="ltr" writing-mode="lr-tb" unicode-bidi="normal" text-decoration="none" transform="matrix(0.212 0 0 0.304 27.6306 143)">100</text><text fill="#262626" fill-opacity="1" font-family="Arial,Arial_MSFontService,sans-serif" font-style="normal" font-variant="normal" font-weight="400" font-stretch="normal" font-size="17" text-anchor="start" direction="ltr" writing-mode="lr-tb" unicode-bidi="normal" text-decoration="none" transform="matrix(0.212 0 0 0.304 27.6306 112)">200</text><text fill="#262626" fill-opacity="1" font-family="Arial,Arial_MSFontService,sans-serif" font-style="normal" font-variant="normal" font-weight="400" font-stretch="normal" font-size="17" text-anchor="start" direction="ltr" writing-mode="lr-tb" unicode-bidi="normal" text-decoration="none" transform="matrix(0.212 0 0 0.304 27.6306 81)">300</text><text fill="#262626" fill-opacity="1" font-family="Arial,Arial_MSFontService,sans-serif" font-style="normal" font-variant="normal" font-weight="400" font-stretch="normal" font-size="17" text-anchor="start" direction="ltr" writing-mode="lr-tb" unicode-bidi="normal" text-decoration="none" transform="matrix(0.212 0 0 0.304 27.6306 50)">400</text><text fill="#262626" fill-opacity="1" font-family="Arial,Arial_MSFontService,sans-serif" font-style="normal" font-variant="normal" font-weight="400" font-stretch="normal" font-size="17" text-anchor="start" direction="ltr" writing-mode="lr-tb" unicode-bidi="normal" text-decoration="none" transform="matrix(0.212 0 0 0.304 27.6306 19)">500</text><text fill="#000000" fill-opacity="1" font-family="Arial,Arial_MSFontService,sans-serif" font-style="normal" font-variant="normal" font-weight="700" font-stretch="normal" font-size="18" text-anchor="start" direction="ltr" writing-mode="lr-tb" unicode-bidi="normal" text-decoration="none" transform="matrix(0.212 0 0 0.304 134.09 15)">Truss</text><path d="M58.1823 42.0962 142.253 43.6116" stroke="#000000" stroke-width="0.17666" stroke-linecap="butt" stroke-linejoin="round" stroke-miterlimit="10" stroke-opacity="1" fill="none" fill-rule="nonzero" transform="scale(1 1.43396)"/><path d="M142.253 43.6116 226.189 45.7587" stroke="#000000" stroke-width="0.17666" stroke-linecap="butt" stroke-linejoin="round" stroke-miterlimit="10" stroke-opacity="1" fill="none" fill-rule="nonzero" transform="scale(1 1.43396)"/><path d="M58.1823 119.815 141.167 121.331" stroke="#000000" stroke-width="0.17666" stroke-linecap="butt" stroke-linejoin="round" stroke-miterlimit="10" stroke-opacity="1" fill="none" fill-rule="nonzero" transform="scale(1 1.43396)"/><path d="M141.167 121.331 224.152 123.857" stroke="#000000" stroke-width="0.17666" stroke-linecap="butt" stroke-linejoin="round" stroke-miterlimit="10" stroke-opacity="1" fill="none" fill-rule="nonzero" transform="scale(1 1.43396)"/><path d="M141.167 121.331 142.253 43.6116" stroke="#000000" stroke-width="0.17666" stroke-linecap="butt" stroke-linejoin="round" stroke-miterlimit="10" stroke-opacity="1" fill="none" fill-rule="nonzero" transform="scale(1 1.43396)"/><path d="M224.152 123.857 226.189 45.7587" stroke="#000000" stroke-width="0.17666" stroke-linecap="butt" stroke-linejoin="round" stroke-miterlimit="10" stroke-opacity="1" fill="none" fill-rule="nonzero" transform="scale(1 1.43396)"/><path d="M58.1823 42.0962 141.167 121.331" stroke="#000000" stroke-width="0.17666" stroke-linecap="butt" stroke-linejoin="round" stroke-miterlimit="10" stroke-opacity="1" fill="none" fill-rule="nonzero" transform="scale(1 1.43396)"/><path d="M58.1823 119.815 142.253 43.6116" stroke="#000000" stroke-width="0.17666" stroke-linecap="butt" stroke-linejoin="round" stroke-miterlimit="10" stroke-opacity="1" fill="none" fill-rule="nonzero" transform="scale(1 1.43396)"/><path d="M142.253 43.6116 224.152 123.857" stroke="#000000" stroke-width="0.17666" stroke-linecap="butt" stroke-linejoin="round" stroke-miterlimit="10" stroke-opacity="1" fill="none" fill-rule="nonzero" transform="scale(1 1.43396)"/><path d="M141.167 121.331 226.189 45.7587" stroke="#000000" stroke-width="0.17666" stroke-linecap="butt" stroke-linejoin="round" stroke-miterlimit="10" stroke-opacity="1" fill="none" fill-rule="nonzero" transform="scale(1 1.43396)"/><path d="M236.081 44.6252 240.955 45.7587 236.081 46.8921" stroke="#0000FF" stroke-width="0.17666" stroke-linecap="butt" stroke-linejoin="round" stroke-miterlimit="10" stroke-opacity="1" fill="none" fill-rule="evenodd" transform="scale(1 1.43396)"/><path d="M224.97 36.5535 226.189 32.0196 227.406 36.5535" stroke="#0000FF" stroke-width="0.17666" stroke-linecap="butt" stroke-linejoin="round" stroke-miterlimit="10" stroke-opacity="1" fill="none" fill-rule="evenodd" transform="scale(1 1.43396)"/><path d="M234.046 122.723 238.918 123.857 234.046 124.99" stroke="#0000FF" stroke-width="0.17666" stroke-linecap="butt" stroke-linejoin="round" stroke-miterlimit="10" stroke-opacity="1" fill="none" fill-rule="evenodd" transform="scale(1 1.43396)"/><path d="M222.935 114.652 224.152 110.118 225.371 114.652" stroke="#0000FF" stroke-width="0.17666" stroke-linecap="butt" stroke-linejoin="round" stroke-miterlimit="10" stroke-opacity="1" fill="none" fill-rule="evenodd" transform="scale(1 1.43396)"/><path d="M152.146 42.4782 157.019 43.6116 152.146 44.7451" stroke="#0000FF" stroke-width="0.17666" stroke-linecap="butt" stroke-linejoin="round" stroke-miterlimit="10" stroke-opacity="1" fill="none" fill-rule="evenodd" transform="scale(1 1.43396)"/><path d="M141.035 34.4065 142.253 29.8727 143.471 34.4065" stroke="#0000FF" stroke-width="0.17666" stroke-linecap="butt" stroke-linejoin="round" stroke-miterlimit="10" stroke-opacity="1" fill="none" fill-rule="evenodd" transform="scale(1 1.43396)"/><path d="M151.06 120.197 155.933 121.331 151.06 122.464" stroke="#0000FF" stroke-width="0.17666" stroke-linecap="butt" stroke-linejoin="round" stroke-miterlimit="10" stroke-opacity="1" fill="none" fill-rule="evenodd" transform="scale(1 1.43396)"/><path d="M139.949 112.126 141.167 107.592 142.386 112.126" stroke="#0000FF" stroke-width="0.17666" stroke-linecap="butt" stroke-linejoin="round" stroke-miterlimit="10" stroke-opacity="1" fill="none" fill-rule="evenodd" transform="scale(1 1.43396)"/><path d="M226.189 45.7587 240.955 45.7587" stroke="#0000FF" stroke-width="0.17666" stroke-linecap="butt" stroke-linejoin="round" stroke-miterlimit="10" stroke-opacity="1" fill="none" fill-rule="nonzero" transform="scale(1 1.43396)"/><path d="M226.189 45.7587 226.189 32.0196" stroke="#0000FF" stroke-width="0.17666" stroke-linecap="butt" stroke-linejoin="round" stroke-miterlimit="10" stroke-opacity="1" fill="none" fill-rule="nonzero" transform="scale(1 1.43396)"/><path d="M224.152 123.857 238.918 123.857" stroke="#0000FF" stroke-width="0.17666" stroke-linecap="butt" stroke-linejoin="round" stroke-miterlimit="10" stroke-opacity="1" fill="none" fill-rule="nonzero" transform="scale(1 1.43396)"/><path d="M224.152 123.857 224.152 110.118" stroke="#0000FF" stroke-width="0.17666" stroke-linecap="butt" stroke-linejoin="round" stroke-miterlimit="10" stroke-opacity="1" fill="none" fill-rule="nonzero" transform="scale(1 1.43396)"/><path d="M142.253 43.6116 157.019 43.6116" stroke="#0000FF" stroke-width="0.17666" stroke-linecap="butt" stroke-linejoin="round" stroke-miterlimit="10" stroke-opacity="1" fill="none" fill-rule="nonzero" transform="scale(1 1.43396)"/><path d="M142.253 43.6116 142.253 29.8727" stroke="#0000FF" stroke-width="0.17666" stroke-linecap="butt" stroke-linejoin="round" stroke-miterlimit="10" stroke-opacity="1" fill="none" fill-rule="nonzero" transform="scale(1 1.43396)"/><path d="M141.167 121.331 155.933 121.331" stroke="#0000FF" stroke-width="0.17666" stroke-linecap="butt" stroke-linejoin="round" stroke-miterlimit="10" stroke-opacity="1" fill="none" fill-rule="nonzero" transform="scale(1 1.43396)"/><path d="M141.167 121.331 141.167 107.592" stroke="#0000FF" stroke-width="0.17666" stroke-linecap="butt" stroke-linejoin="round" stroke-miterlimit="10" stroke-opacity="1" fill="none" fill-rule="nonzero" transform="scale(1 1.43396)"/><path d="M225.371 133.062 224.152 137.596 222.935 133.062" stroke="#FF0000" stroke-width="0.17666" stroke-linecap="butt" stroke-linejoin="round" stroke-miterlimit="10" stroke-opacity="1" fill="none" fill-rule="evenodd" transform="scale(1 1.43396)"/><path d="M142.386 130.536 141.167 135.07 139.949 130.536" stroke="#FF0000" stroke-width="0.17666" stroke-linecap="butt" stroke-linejoin="round" stroke-miterlimit="10" stroke-opacity="1" fill="none" fill-rule="evenodd" transform="scale(1 1.43396)"/><path d="M224.152 123.857 224.152 137.596" stroke="#FF0000" stroke-width="0.17666" stroke-linecap="butt" stroke-linejoin="round" stroke-miterlimit="10" stroke-opacity="1" fill="none" fill-rule="nonzero" transform="scale(1 1.43396)"/><path d="M141.167 121.331 141.167 135.07" stroke="#FF0000" stroke-width="0.17666" stroke-linecap="butt" stroke-linejoin="round" stroke-miterlimit="10" stroke-opacity="1" fill="none" fill-rule="nonzero" transform="scale(1 1.43396)"/><path d="M58.1821 119.815 58.1821 119.815" stroke="#00FF00" stroke-width="0.17666" stroke-linecap="butt" stroke-linejoin="round" stroke-miterlimit="10" stroke-opacity="1" fill="none" fill-rule="evenodd" transform="scale(1 1.43396)"/><path d="M58.1821 119.815 58.1821 119.815" stroke="#00FF00" stroke-width="0.17666" stroke-linecap="butt" stroke-linejoin="round" stroke-miterlimit="10" stroke-opacity="1" fill="none" fill-rule="evenodd" transform="scale(1 1.43396)"/><path d="M58.1821 119.815 58.1821 119.815" stroke="#00FF00" stroke-width="0.17666" stroke-linecap="butt" stroke-linejoin="round" stroke-miterlimit="10" stroke-opacity="1" fill="none" fill-rule="evenodd" transform="scale(1 1.43396)"/><path d="M226.189 45.7587 226.189 45.7587" stroke="#00FF00" stroke-width="0.17666" stroke-linecap="butt" stroke-linejoin="round" stroke-miterlimit="10" stroke-opacity="1" fill="none" fill-rule="evenodd" transform="scale(1 1.43396)"/><path d="M226.189 45.7587 226.189 45.7587" stroke="#00FF00" stroke-width="0.17666" stroke-linecap="butt" stroke-linejoin="round" stroke-miterlimit="10" stroke-opacity="1" fill="none" fill-rule="evenodd" transform="scale(1 1.43396)"/><path d="M226.189 45.7587 226.189 45.7587" stroke="#00FF00" stroke-width="0.17666" stroke-linecap="butt" stroke-linejoin="round" stroke-miterlimit="10" stroke-opacity="1" fill="none" fill-rule="evenodd" transform="scale(1 1.43396)"/><path d="M224.152 123.857 224.152 123.857" stroke="#00FF00" stroke-width="0.17666" stroke-linecap="butt" stroke-linejoin="round" stroke-miterlimit="10" stroke-opacity="1" fill="none" fill-rule="evenodd" transform="scale(1 1.43396)"/><path d="M224.152 123.857 224.152 123.857" stroke="#00FF00" stroke-width="0.17666" stroke-linecap="butt" stroke-linejoin="round" stroke-miterlimit="10" stroke-opacity="1" fill="none" fill-rule="evenodd" transform="scale(1 1.43396)"/><path d="M224.152 123.857 224.152 123.857" stroke="#00FF00" stroke-width="0.17666" stroke-linecap="butt" stroke-linejoin="round" stroke-miterlimit="10" stroke-opacity="1" fill="none" fill-rule="evenodd" transform="scale(1 1.43396)"/><path d="M142.253 43.6116 142.253 43.6116" stroke="#00FF00" stroke-width="0.17666" stroke-linecap="butt" stroke-linejoin="round" stroke-miterlimit="10" stroke-opacity="1" fill="none" fill-rule="evenodd" transform="scale(1 1.43396)"/><path d="M142.253 43.6116 142.253 43.6116" stroke="#00FF00" stroke-width="0.17666" stroke-linecap="butt" stroke-linejoin="round" stroke-miterlimit="10" stroke-opacity="1" fill="none" fill-rule="evenodd" transform="scale(1 1.43396)"/><path d="M142.253 43.6116 142.253 43.6116" stroke="#00FF00" stroke-width="0.17666" stroke-linecap="butt" stroke-linejoin="round" stroke-miterlimit="10" stroke-opacity="1" fill="none" fill-rule="evenodd" transform="scale(1 1.43396)"/><path d="M141.167 121.331 141.167 121.331" stroke="#00FF00" stroke-width="0.17666" stroke-linecap="butt" stroke-linejoin="round" stroke-miterlimit="10" stroke-opacity="1" fill="none" fill-rule="evenodd" transform="scale(1 1.43396)"/><path d="M141.167 121.331 141.167 121.331" stroke="#00FF00" stroke-width="0.17666" stroke-linecap="butt" stroke-linejoin="round" stroke-miterlimit="10" stroke-opacity="1" fill="none" fill-rule="evenodd" transform="scale(1 1.43396)"/><path d="M141.167 121.331 141.167 121.331" stroke="#00FF00" stroke-width="0.17666" stroke-linecap="butt" stroke-linejoin="round" stroke-miterlimit="10" stroke-opacity="1" fill="none" fill-rule="evenodd" transform="scale(1 1.43396)"/><path d="M68.0753 40.9626 72.9481 42.0962 68.0753 43.2296" stroke="#00FF00" stroke-width="0.17666" stroke-linecap="butt" stroke-linejoin="round" stroke-miterlimit="10" stroke-opacity="1" fill="none" fill-rule="evenodd" transform="scale(1 1.43396)"/><path d="M56.964 32.8909 58.1821 28.3571 59.4005 32.8909" stroke="#00FF00" stroke-width="0.17666" stroke-linecap="butt" stroke-linejoin="round" stroke-miterlimit="10" stroke-opacity="1" fill="none" fill-rule="evenodd" transform="scale(1 1.43396)"/><path d="M58.1821 42.0962 58.1821 42.0962" stroke="#00FF00" stroke-width="0.17666" stroke-linecap="butt" stroke-linejoin="round" stroke-miterlimit="10" stroke-opacity="1" fill="none" fill-rule="evenodd" transform="scale(1 1.43396)"/><path d="M68.0753 118.682 72.9481 119.815 68.0753 120.949" stroke="#00FF00" stroke-width="0.17666" stroke-linecap="butt" stroke-linejoin="round" stroke-miterlimit="10" stroke-opacity="1" fill="none" fill-rule="evenodd" transform="scale(1 1.43396)"/><path d="M56.964 110.61 58.1821 106.076 59.4005 110.61" stroke="#00FF00" stroke-width="0.17666" stroke-linecap="butt" stroke-linejoin="round" stroke-miterlimit="10" stroke-opacity="1" fill="none" fill-rule="evenodd" transform="scale(1 1.43396)"/><path d="M58.1821 119.815 58.1821 119.815" stroke="#00FF00" stroke-width="0.17666" stroke-linecap="butt" stroke-linejoin="round" stroke-miterlimit="10" stroke-opacity="1" fill="none" fill-rule="evenodd" transform="scale(1 1.43396)"/><path d="M58.1823 119.815 58.1823 119.815" stroke="#00FF00" stroke-width="0.17666" stroke-linecap="butt" stroke-linejoin="round" stroke-miterlimit="10" stroke-opacity="1" fill="none" fill-rule="nonzero" transform="scale(1 1.43396)"/><path d="M58.1823 119.815 58.1823 119.815" stroke="#00FF00" stroke-width="0.17666" stroke-linecap="butt" stroke-linejoin="round" stroke-miterlimit="10" stroke-opacity="1" fill="none" fill-rule="nonzero" transform="scale(1 1.43396)"/><path d="M58.1823 119.815 58.1823 119.815" stroke="#00FF00" stroke-width="0.17666" stroke-linecap="butt" stroke-linejoin="round" stroke-miterlimit="10" stroke-opacity="1" fill="none" fill-rule="nonzero" transform="scale(1 1.43396)"/><path d="M226.189 45.7587 226.189 45.7587" stroke="#00FF00" stroke-width="0.17666" stroke-linecap="butt" stroke-linejoin="round" stroke-miterlimit="10" stroke-opacity="1" fill="none" fill-rule="nonzero" transform="scale(1 1.43396)"/><path d="M226.189 45.7587 226.189 45.7587" stroke="#00FF00" stroke-width="0.17666" stroke-linecap="butt" stroke-linejoin="round" stroke-miterlimit="10" stroke-opacity="1" fill="none" fill-rule="nonzero" transform="scale(1 1.43396)"/><path d="M226.189 45.7587 226.189 45.7587" stroke="#00FF00" stroke-width="0.17666" stroke-linecap="butt" stroke-linejoin="round" stroke-miterlimit="10" stroke-opacity="1" fill="none" fill-rule="nonzero" transform="scale(1 1.43396)"/><path d="M224.152 123.857 224.152 123.857" stroke="#00FF00" stroke-width="0.17666" stroke-linecap="butt" stroke-linejoin="round" stroke-miterlimit="10" stroke-opacity="1" fill="none" fill-rule="nonzero" transform="scale(1 1.43396)"/><path d="M224.152 123.857 224.152 123.857" stroke="#00FF00" stroke-width="0.17666" stroke-linecap="butt" stroke-linejoin="round" stroke-miterlimit="10" stroke-opacity="1" fill="none" fill-rule="nonzero" transform="scale(1 1.43396)"/><path d="M224.152 123.857 224.152 123.857" stroke="#00FF00" stroke-width="0.17666" stroke-linecap="butt" stroke-linejoin="round" stroke-miterlimit="10" stroke-opacity="1" fill="none" fill-rule="nonzero" transform="scale(1 1.43396)"/><path d="M142.253 43.6116 142.253 43.6116" stroke="#00FF00" stroke-width="0.17666" stroke-linecap="butt" stroke-linejoin="round" stroke-miterlimit="10" stroke-opacity="1" fill="none" fill-rule="nonzero" transform="scale(1 1.43396)"/><path d="M142.253 43.6116 142.253 43.6116" stroke="#00FF00" stroke-width="0.17666" stroke-linecap="butt" stroke-linejoin="round" stroke-miterlimit="10" stroke-opacity="1" fill="none" fill-rule="nonzero" transform="scale(1 1.43396)"/><path d="M142.253 43.6116 142.253 43.6116" stroke="#00FF00" stroke-width="0.17666" stroke-linecap="butt" stroke-linejoin="round" stroke-miterlimit="10" stroke-opacity="1" fill="none" fill-rule="nonzero" transform="scale(1 1.43396)"/><path d="M141.167 121.331 141.167 121.331" stroke="#00FF00" stroke-width="0.17666" stroke-linecap="butt" stroke-linejoin="round" stroke-miterlimit="10" stroke-opacity="1" fill="none" fill-rule="nonzero" transform="scale(1 1.43396)"/><path d="M141.167 121.331 141.167 121.331" stroke="#00FF00" stroke-width="0.17666" stroke-linecap="butt" stroke-linejoin="round" stroke-miterlimit="10" stroke-opacity="1" fill="none" fill-rule="nonzero" transform="scale(1 1.43396)"/><path d="M141.167 121.331 141.167 121.331" stroke="#00FF00" stroke-width="0.17666" stroke-linecap="butt" stroke-linejoin="round" stroke-miterlimit="10" stroke-opacity="1" fill="none" fill-rule="nonzero" transform="scale(1 1.43396)"/><path d="M58.1823 42.0962 72.9479 42.0962" stroke="#00FF00" stroke-width="0.17666" stroke-linecap="butt" stroke-linejoin="round" stroke-miterlimit="10" stroke-opacity="1" fill="none" fill-rule="nonzero" transform="scale(1 1.43396)"/><path d="M58.1823 42.0962 58.1823 28.3571" stroke="#00FF00" stroke-width="0.17666" stroke-linecap="butt" stroke-linejoin="round" stroke-miterlimit="10" stroke-opacity="1" fill="none" fill-rule="nonzero" transform="scale(1 1.43396)"/><path d="M58.1823 42.0962 58.1823 42.0962" stroke="#00FF00" stroke-width="0.17666" stroke-linecap="butt" stroke-linejoin="round" stroke-miterlimit="10" stroke-opacity="1" fill="none" fill-rule="nonzero" transform="scale(1 1.43396)"/><path d="M58.1823 119.815 72.9479 119.815" stroke="#00FF00" stroke-width="0.17666" stroke-linecap="butt" stroke-linejoin="round" stroke-miterlimit="10" stroke-opacity="1" fill="none" fill-rule="nonzero" transform="scale(1 1.43396)"/><path d="M58.1823 119.815 58.1823 106.076" stroke="#00FF00" stroke-width="0.17666" stroke-linecap="butt" stroke-linejoin="round" stroke-miterlimit="10" stroke-opacity="1" fill="none" fill-rule="nonzero" transform="scale(1 1.43396)"/><path d="M58.1823 119.815 58.1823 119.815" stroke="#00FF00" stroke-width="0.17666" stroke-linecap="butt" stroke-linejoin="round" stroke-miterlimit="10" stroke-opacity="1" fill="none" fill-rule="nonzero" transform="scale(1 1.43396)"/><path d="M292.348 30.316 292.348 11.872 249.524 11.872 249.524 30.316Z" fill="#FFFFFF" fill-rule="nonzero" fill-opacity="1" transform="scale(1 1.43396)"/><text fill="#000000" fill-opacity="1" font-family="Arial,Arial_MSFontService,sans-serif" font-style="normal" font-variant="normal" font-weight="400" font-stretch="normal" font-size="15" text-anchor="start" direction="ltr" writing-mode="lr-tb" unicode-bidi="normal" text-decoration="none" transform="matrix(0.212 0 0 0.304 261.994 23)">Beams</text><path d="M250.586 14.5258 261.199 14.5258" stroke="#000000" stroke-width="0.17666" stroke-linecap="butt" stroke-linejoin="round" stroke-miterlimit="10" stroke-opacity="1" fill="none" fill-rule="nonzero" transform="scale(1 1.43396)"/><text fill="#000000" fill-opacity="1" font-family="Arial,Arial_MSFontService,sans-serif" font-style="normal" font-variant="normal" font-weight="400" font-stretch="normal" font-size="15" text-anchor="start" direction="ltr" writing-mode="lr-tb" unicode-bidi="normal" text-decoration="none" transform="matrix(0.212 0 0 0.304 261.994 29)">Degrees of Freedom</text><path d="M250.586 18.9046 261.199 18.9046" stroke="#0000FF" stroke-width="0.17666" stroke-linecap="butt" stroke-linejoin="round" stroke-miterlimit="10" stroke-opacity="1" fill="none" fill-rule="nonzero" transform="scale(1 1.43396)"/><path d="M258.015 19.5415 261.199 18.9046 258.015 18.2677" stroke="#0000FF" stroke-width="0.17666" stroke-linecap="butt" stroke-linejoin="round" stroke-miterlimit="10" stroke-opacity="1" fill="none" fill-rule="evenodd" transform="scale(1 1.43396)"/><text fill="#000000" fill-opacity="1" font-family="Arial,Arial_MSFontService,sans-serif" font-style="normal" font-variant="normal" font-weight="400" font-stretch="normal" font-size="15" text-anchor="start" direction="ltr" writing-mode="lr-tb" unicode-bidi="normal" text-decoration="none" transform="matrix(0.212 0 0 0.304 261.994 35)">Forces</text><path d="M250.586 23.2833 261.199 23.2833" stroke="#FF0000" stroke-width="0.17666" stroke-linecap="butt" stroke-linejoin="round" stroke-miterlimit="10" stroke-opacity="1" fill="none" fill-rule="nonzero" transform="scale(1 1.43396)"/><path d="M258.015 23.9204 261.199 23.2833 258.015 22.6465" stroke="#FF0000" stroke-width="0.17666" stroke-linecap="butt" stroke-linejoin="round" stroke-miterlimit="10" stroke-opacity="1" fill="none" fill-rule="evenodd" transform="scale(1 1.43396)"/><text fill="#000000" fill-opacity="1" font-family="Arial,Arial_MSFontService,sans-serif" font-style="normal" font-variant="normal" font-weight="400" font-stretch="normal" font-size="15" text-anchor="start" direction="ltr" writing-mode="lr-tb" unicode-bidi="normal" text-decoration="none" transform="matrix(0.212 0 0 0.304 261.994 41)">Constraints</text><path d="M250.586 27.6622 261.199 27.6622" stroke="#00FF00" stroke-width="0.17666" stroke-linecap="butt" stroke-linejoin="round" stroke-miterlimit="10" stroke-opacity="1" fill="none" fill-rule="nonzero" transform="scale(1 1.43396)"/><path d="M258.015 28.299 261.199 27.6622 258.015 27.0253" stroke="#00FF00" stroke-width="0.17666" stroke-linecap="butt" stroke-linejoin="round" stroke-miterlimit="10" stroke-opacity="1" fill="none" fill-rule="evenodd" transform="scale(1 1.43396)"/><path d="M249.524 30.316 249.524 11.872 292.348 11.872 292.348 30.316Z" stroke="#262626" stroke-width="0.17666" stroke-linecap="butt" stroke-linejoin="miter" stroke-miterlimit="10" stroke-opacity="1" fill="none" fill-rule="evenodd" transform="scale(1 1.43396)"/></g></g></svg>